<svg id="visual" viewBox="0 0 960 300" width="960" height="300" xmlns="http://www.w3.org/2000/svg" xmlns:xlink="http://www.w3.org/1999/xlink" version="1.1"><path d="M0 203L22.8 199.8C45.7 196.7 91.3 190.3 137 191.3C182.7 192.3 228.3 200.7 274 202C319.7 203.3 365.3 197.7 411.2 194.5C457 191.3 503 190.7 548.8 194C594.7 197.3 640.3 204.7 686 210C731.7 215.3 777.3 218.7 823 215.2C868.7 211.7 914.3 201.3 937.2 196.2L960 191L960 301L937.2 301C914.3 301 868.7 301 823 301C777.3 301 731.7 301 686 301C640.3 301 594.7 301 548.8 301C503 301 457 301 411.2 301C365.3 301 319.7 301 274 301C228.3 301 182.7 301 137 301C91.3 301 45.7 301 22.8 301L0 301Z" fill="#69b4fa"></path><path d="M0 212L22.8 212.5C45.7 213 91.3 214 137 216.3C182.7 218.7 228.3 222.3 274 222.7C319.7 223 365.3 220 411.2 215.8C457 211.7 503 206.3 548.8 208.3C594.7 210.3 640.3 219.7 686 221C731.7 222.3 777.3 215.7 823 215.2C868.7 214.7 914.3 220.3 937.2 223.2L960 226L960 301L937.2 301C914.3 301 868.7 301 823 301C777.3 301 731.7 301 686 301C640.3 301 594.7 301 548.8 301C503 301 457 301 411.2 301C365.3 301 319.7 301 274 301C228.3 301 182.7 301 137 301C91.3 301 45.7 301 22.8 301L0 301Z" fill="#4f99f8"></path><path d="M0 225L22.8 227.2C45.7 229.3 91.3 233.7 137 233.2C182.7 232.7 228.3 227.3 274 227C319.7 226.7 365.3 231.3 411.2 235.5C457 239.7 503 243.3 548.8 241.7C594.7 240 640.3 233 686 234.3C731.7 235.7 777.3 245.3 823 247.2C868.7 249 914.3 243 937.2 240L960 237L960 301L937.2 301C914.3 301 868.7 301 823 301C777.3 301 731.7 301 686 301C640.3 301 594.7 301 548.8 301C503 301 457 301 411.2 301C365.3 301 319.7 301 274 301C228.3 301 182.7 301 137 301C91.3 301 45.7 301 22.8 301L0 301Z" fill="#4d7bf0"></path><path d="M0 251L22.8 253.8C45.7 256.7 91.3 262.3 137 265.2C182.7 268 228.3 268 274 265.7C319.7 263.3 365.3 258.7 411.2 256.3C457 254 503 254 548.8 251.8C594.7 249.7 640.3 245.3 686 247.8C731.7 250.3 777.3 259.7 823 259.7C868.7 259.7 914.3 250.3 937.2 245.7L960 241L960 301L937.2 301C914.3 301 868.7 301 823 301C777.3 301 731.7 301 686 301C640.3 301 594.7 301 548.8 301C503 301 457 301 411.2 301C365.3 301 319.7 301 274 301C228.3 301 182.7 301 137 301C91.3 301 45.7 301 22.8 301L0 301Z" fill="#6058e0"></path><path d="M0 264L22.8 266.8C45.7 269.7 91.3 275.3 137 277.2C182.7 279 228.3 277 274 275C319.7 273 365.3 271 411.2 270.3C457 269.7 503 270.3 548.8 271.8C594.7 273.3 640.3 275.7 686 277C731.7 278.3 777.3 278.7 823 277C868.7 275.3 914.3 271.7 937.2 269.8L960 268L960 301L937.2 301C914.3 301 868.7 301 823 301C777.3 301 731.7 301 686 301C640.3 301 594.7 301 548.8 301C503 301 457 301 411.2 301C365.3 301 319.7 301 274 301C228.3 301 182.7 301 137 301C91.3 301 45.7 301 22.8 301L0 301Z" fill="#7824c7"></path></svg>